/* XPM */
static char *_da2819eb6404a279a4b315994f3c073Hqc0xsyjMlIMiXjH[] = {
/* columns rows colors chars-per-pixel */
"32 32 5 1 ",
"  c #AB9066",
". c #BF9F6E",
"X c #C7A877",
"o c #CEAE7B",
"O c #D7B680",
/* pixels */
"XXXXOoXooooXo ooXoXOXo .oX.oOXOo",
"XXXXX.oo.oXoOoXo.oOoo.ooXo .Xooo",
"XXXXooOX X.ooooo ooXoOXooooooo.o",
"XoX ooX.o.oooXooX.oooXoOX.oXoooO",
"oooX.ooooX XoOo.ooXoooooo XooX o",
"o.XoX Oooo.oOXoXo oXo Xoooo.XO.o",
"oXoXo.ooooooooXoo.Xoo.ooO.OooXoo",
"Xo.oooo.o ooOX XooooooXOXoXOoo o",
"oX ooXooX.Xooo.oX.o oXo.oo.ooo.o",
"oooooo.oXooXOoooooo.ooXOoX ooooo",
"ooooooXoo Xoo.oooXooXoo oOoooo.X",
" XO Xo.Xo.ooX XoX.Xoo X.Xoo.ooXo",
".oo.oo oXooOooOoo oOo.Xooo.oXooO",
"XoXoooX.oOXo.XooXoXooo.Xoo Xooo.",
"oooXo.oo Xoo o.X.XOoXoXo.Xo.X oo",
"Xo o.oOX.oo.oXoo ooooO oXo.Xo.Xo",
"oX.ooXooX XoooX.oooXoX.XoXoooooo",
"oooXO Oo.XoXooooX XoX.XoooXoXo.X",
"oXoo.oooooooO.Xoo.ooOo ooO XoX o",
"X oXo.XoOXOoX oo.OXooX.o.X.oOoXo",
"o.XooX.Xoo XooXoOXooXoooooXooo.o",
"oo.Xo oo.X.oo.oo XoXo o.oXoX.XOX",
"ooooX.XooXoOoXoX.oooX.Oooo o .oo",
"oXo.oXO.oo.oXo.ooX.ooXoooX.oXooo",
"XoX ooo XoXooOoXOo OXOooOooo.oX ",
"OooXo.oooO.o O.oX.XooXo.XooXooo.",
"ooXoOoXo.ooo.XoXooooXo o.o.oX OX",
"Xo.ooo.o oX.oooO oOooo.oOoooo.oo",
"oX .OooooXoXOo o.oXoOXooo XooXoo",
"XoXoXooooo.ooo.OoooOX.ooX.oo.ooO",
"oXOoo ooo ooXOoXooo oooXoXoXXXXX",
"o.oXo.o.X.Xoo.oooXo.ooXooOoXXXXX"
};
