/* XPM */
static char *_57f2d81de304ca5d90971fe3e7e4917UbbiTIBQIld8BOAS[] = {
/* columns rows colors chars-per-pixel */
"32 32 9 1 ",
"  c None",
". c #4C3214",
"X c #5A3F1E",
"o c #105210",
"O c #1F6519",
"+ c #70532E",
"@ c #7F6139",
"# c #408F2F",
"$ c #57AD3F",
/* pixels */
"                                ",
"                                ",
"                      Oo        ",
"                     OoO##      ",
"              $     ooOo#       ",
"       Oo    $## #  OOoo  $#o   ",
"       oOo  $#$#O#  oOo   #oo   ",
"      @@oo  ###OO    o.  #ooX   ",
"   ##  +@+  O#OOO#o  +#o+X.     ",
"    ##  @OX #O##OO#  +o+XX  ##  ",
"   $$###$OO#  OOO#O @++XOO$OO   ",
"  $$$$$#O$O#XX ooO+@+.XOO#$#    ",
"    $##$$#+X+XX ++@+X+  $##$#   ",
"      $$##@@++XXo#@X.   O$O$$#  ",
"       @#    +@@o@+.  o  $##$#  ",
"      +@   o  ++X+.   oo  O$    ",
"          OooO +$### oOooO      ",
"          OOoo O#$$#OOooOo      ",
"    ##     XO##$O#$##O  +++     ",
"     ##+XX++XO$##$#OOo++..XXOO  ",
"    OOO#Oo@++@X##OO  +X.+XooO   ",
"   O$$#OO  X+@X@@+X ++.X  O#$$  ",
"  #$$### O  $$XXO#. X.X  O#O#$  ",
"  ###OO  OO$##oX+O++Xo    ##O#O ",
"    OO    O#O#OO+@+#$oo#   ##$O ",
"          $##$#O+@#$$$#     Oo  ",
"          ###O+@@+$#$#          ",
"           $O  @@+X##$          ",
"               @@+X.O##         ",
"               +++.  #          ",
"               +++.             ",
"              ++++X.            "
};
