/* XPM */
static char *_b75b091d3b24717f47c7d2841929182w7fCnpdiYxRiJKLX[] = {
/* columns rows colors chars-per-pixel */
"32 32 16 1 ",
"  c #3E3013",
". c #403612",
"X c #635820",
"o c #7D5D26",
"O c #976A44",
"+ c #9F714A",
"@ c #AA7954",
"# c #B88764",
"$ c #BF8E6B",
"% c black",
"& c black",
"* c black",
"= c black",
"- c black",
"; c black",
": c black",
/* pixels */
"oo.X..XXXX..    ..XooX...oXXooX.",
"oXX..XX..XXX.    ...ooXooXX..Xo.",
".X#$$$#@#@@#+@@#$#@@#@#$$$##$#oX",
".o#OOOO+O+OO+++++++++++++++++$Xo",
"..$O@$##$$#@$##$$$#@#$@#$$$#+$X.",
"X.#O$#@@#@@#++@@@#@@@@+@#@@#+#X ",
"oX@O$@+++O++++++++++++++++#$+@. ",
"Xo#+$+O@$#$@#$$@#@#$$@#$#+@$+@  ",
".o@+#@O$#@++@@##@@@@#@+@$++@+@ .",
"..@O$@+$@+O++OO++++++++@$+@#+#.X",
"X $+@++#+O+$#$$@#$@$#@+@#+@@+#Xo",
"X #+#@+$@O$@@#@+@@@#@#+#@O@#+@.o",
"  @+$#+@#+$@++++++++@@+#$+@$+@.X",
" .++@#+@@+#@+#$@$@#+@#O@#+@#+@.o",
" X@+#+O#@+@#+$++++@+#@O+$+@#++Xo",
".X@+$@+$@+$@O#++@+#+#$++$+@$+@oo",
"Xo#+#@+$#+$@O@+@++$O@#+@#+@#++o.",
"oo@+#@+#@+#@O@++++$O#$+@#+@$++o.",
"oX@+@++#@+@++#@#$@#+@#++$+@$++Xo",
"o.#+$++$++#@++OOO+++@@+@#+#$+@.X",
"X.$+#@+@#+@@##@@#+@@#$+#$+@#+#..",
".X#+@@+#@+@#$@#$$@#$$#+@$++#+@X.",
"..#+@#+$@++++++++++++++@#O+$+#. ",
" .@+$#+#@@@+###@++@@@#@@$+@#+$  ",
". @+$@+@#$@#$#$$#@#$$@#$$+#@O@  ",
"X @+#@++++++++++++++OOO+++@$+# .",
"X.@+@+@##@+@#+@#@@@#@+++#@@#+$.X",
". #+$##@$$#$@@#$$@#$###$$#$$O$.o",
" .$+++++OO++++++++++OOOO++XXXXXX",
".o$$@##@#$##@+#@$#@##@#@#$XXXXXX",
".XooXX.  .XXooX...XooXX.. XXXXXX",
"oooX.   .Xo..XooooooX..X  XXXXXX"
};
