/* XPM */
static char *_b01e1bab55642ccf14fd2ec22613749xSBpIWqJ2eoOpbJh[] = {
/* columns rows colors chars-per-pixel */
"32 32 4 1 ",
"  c #322718",
". c #524127",
"X c #695433",
"o c #806337",
/* pixels */
"................................",
".                             X.",
". ............................X.",
". ............................X.",
". ............................X.",
".                             ..",
". ............................X.",
". ............................X.",
". ............................X.",
".                             ..",
". ............................X.",
". ............................X.",
". ............................X.",
".                             ..",
". ............................X.",
". ............................X.",
". ............................X.",
".                             ..",
". ............................X.",
". ............................X.",
". ............................X.",
".                             ..",
". ............................X.",
". ............................X.",
". ............................X.",
".                             ..",
". ............................X.",
". ............................X.",
". ............................X.",
"oooo                          ..",
"ooooooooooooooooooooooooooooooo.",
"ooooo..........................."
};
